<?xml version="1.0" encoding="UTF-8" standalone="no"?>
<!DOCTYPE svg PUBLIC "-//W3C//DTD SVG 1.1//EN" "http://www.w3.org/Graphics/SVG/1.1/DTD/svg11.dtd">
<svg width="100%" height="100%" viewBox="0 0 1080 664" version="1.1" xmlns="http://www.w3.org/2000/svg" xmlns:xlink="http://www.w3.org/1999/xlink" xml:space="preserve" xmlns:serif="http://www.serif.com/" style="fill-rule:evenodd;clip-rule:evenodd;stroke-linecap:round;stroke-linejoin:round;stroke-miterlimit:1.5;">
    <g transform="matrix(2.74707,0,0,2.74707,-505.955,-1890.6)">
        <path d="M184.18,929.935L220.846,888.198L262.156,903.32L306.26,808.654L350.732,898.208L386.823,905.776L417.068,877.526L471.539,868.547L495.62,847.992L511.409,816.305L577.326,732.305" style="fill:none;stroke:rgb(8,61,119);stroke-opacity:0.3;stroke-width:1.46px;"/>
    </g>
    <g transform="matrix(2.74707,0,0,2.74707,-505.955,-1890.6)">
        <path d="M184.18,929.935L234.057,907.253L268.057,868.349L350.773,837.19L413.633,812.221L452.081,777.221L527.414,769.695L565.729,708L577.326,688.445" style="fill:none;stroke:rgb(245,105,96);stroke-opacity:0.3;stroke-width:1.46px;"/>
    </g>
    <g transform="matrix(2.74707,0,0,2.74707,-505.955,-1890.6)">
        <path d="M184.18,929.935L239.971,920.406L281.128,908.388L322.901,889.76L369.393,890.453L387.406,862.297L417.568,866.531L469.898,831.12L503.508,793.229L555.06,786.612L577.326,764.937" style="fill:none;stroke:rgb(244,211,94);stroke-opacity:0.3;stroke-width:1.46px;"/>
    </g>
</svg>
