<?xml version="1.0" encoding="UTF-8" standalone="no"?><!DOCTYPE svg PUBLIC "-//W3C//DTD SVG 1.1//EN" "http://www.w3.org/Graphics/SVG/1.1/DTD/svg11.dtd"><svg width="100%" height="100%" viewBox="0 0 2250 1132" version="1.1" xmlns="http://www.w3.org/2000/svg" xmlns:xlink="http://www.w3.org/1999/xlink" xml:space="preserve" xmlns:serif="http://www.serif.com/" style="fill-rule:evenodd;clip-rule:evenodd;stroke-linejoin:round;stroke-miterlimit:2;"><path d="M1715.3,363.928l-400.567,271.438c15.694,-0.549 -42.012,-87.528 -138.591,-108.628c-87.337,-19.08 -185.315,37.146 -190.476,20.311c-28.847,-94.115 -222.595,-111.12 -293.324,5.779c-96.212,-39.47 -148.149,3.434 -177.299,88.731c-97.19,-55.507 -255.747,-9.016 -255.098,111.621c-134.341,-19.371 -180.107,45.344 -162.392,168.823c-102.553,54.446 -111.674,123.669 -31.119,207.074l1924.36,4.256c45.533,-74.047 24.751,-131.053 -63.917,-170.613c-0.526,-22.836 -7.203,-38.982 -18.949,-49.616c-14.894,-13.483 -37.939,-18.102 -66.93,-16.255c-19.201,-94.712 -127.624,-118.839 -233.565,-97.025c-27.248,-81.682 -102.809,-91.438 -208.243,-56.719l-1.697,0.151l364.492,-318.466l-46.686,-60.862Z" style="fill:#ebebf4;"/><path d="M1619.02,487.117c100.452,-188.05 240.214,-184.265 240.214,-184.265l0.098,0.128c0,0 -32.558,135.97 -240.214,184.265" style="fill:#f4d35e;"/><path d="M1862.53,386.108l-82.659,-107.758l-34.636,26.569l82.659,107.757l34.636,-26.568Z" style="fill:#083d77;"/><path d="M1862.93,450.613c365.557,-226.402 382.488,-443.996 382.488,-443.996c0,0 -214.549,-40.028 -527.939,254.38c77.624,39.627 126.412,102.586 145.451,189.616" style="fill:#ebebd3;"/><path d="M2159.05,191.799c-17.033,-71.28 -52.179,-114.03 -113.703,-150.244c125.078,-48.793 199.771,-34.743 200.072,-34.938c0.325,-0.209 -8.417,81.674 -86.369,185.182Z" style="fill:#f56960;"/><path d="M2159.56,190.857c-16.83,-67.522 -52.661,-114.545 -114.676,-149.496c0,0 -5.658,2.185 -9.963,4.164c62.015,34.95 101.539,86.789 118.37,154.311c2.691,-3.902 6.338,-8.889 6.338,-8.889" style="fill:#083d77;"/><path d="M2058.16,150.255c12.619,16.45 9.508,40.05 -6.942,52.669c-16.45,12.619 -40.05,9.508 -52.668,-6.942c-12.619,-16.45 -9.508,-40.05 6.942,-52.669c16.45,-12.618 40.05,-9.508 52.668,6.942Zm-8.916,7.043c8.802,11.475 6.632,27.937 -4.842,36.739c-11.475,8.803 -27.938,6.633 -36.74,-4.842c-8.802,-11.475 -6.632,-27.937 4.843,-36.739c11.474,-8.803 27.937,-6.633 36.739,4.842Z" style="fill:#f56960;"/><path d="M2049.25,157.298c8.802,11.475 6.632,27.937 -4.842,36.739c-11.475,8.803 -27.938,6.633 -36.74,-4.842c-8.802,-11.475 -6.632,-27.937 4.843,-36.739c11.474,-8.803 27.937,-6.633 36.739,4.842Z" style="fill:#f4d35e;"/><path d="M1807.1,183.171c0,0 -109.053,-115.828 -232.497,29.968c-0.523,0.618 141.827,-97.95 172.32,21.279c0.056,0.219 25.597,-22.36 28.768,-25.042c7.97,-6.74 31.155,-26.318 31.409,-26.205Z" style="fill:#f56960;"/><path d="M1961.75,384.785c0,0 83.615,135.34 -89.187,216.791c-0.733,0.345 131.353,-111.603 24.098,-171.949c-0.197,-0.11 28.229,-18.928 31.641,-21.297c8.574,-5.951 33.491,-23.271 33.448,-23.545Z" style="fill:#f56960;"/><path d="M1723.46,407.203c97.114,-124.531 160.745,-123.508 160.745,-123.508l0.098,0.128c0,0 -15.5,61.722 -160.942,123.253" style="fill:#f56960;"/></svg>