<?xml version="1.0" encoding="UTF-8" standalone="no"?><!DOCTYPE svg PUBLIC "-//W3C//DTD SVG 1.1//EN" "http://www.w3.org/Graphics/SVG/1.1/DTD/svg11.dtd"><svg width="100%" height="100%" viewBox="0 0 2250 865" version="1.1" xmlns="http://www.w3.org/2000/svg" xmlns:xlink="http://www.w3.org/1999/xlink" xml:space="preserve" xmlns:serif="http://www.serif.com/" style="fill-rule:evenodd;clip-rule:evenodd;stroke-linecap:round;stroke-linejoin:round;stroke-miterlimit:1.5;"><path d="M1796.34,440.93l303.062,-289.686c71.459,74.794 113.744,169.033 116.398,289.686c-3.396,118.334 -43.889,213.207 -116.398,287.83l-303.062,-287.83Z" style="fill:#f4d35e;stroke:#000;stroke-width:2.08px;"/><path d="M1376.88,440.002l419.46,0.928l303.062,-289.686c-88.761,-88.151 -190.371,-131.761 -305.135,-129.774c-101.757,2.087 -189.352,35.064 -263.903,96.499c-102.536,84.264 -150.302,193.134 -153.484,322.033Z" style="fill:#33cc45;stroke:#000;stroke-width:2.08px;"/><path d="M1796.34,440.93l-419.46,0c4.377,218.098 158.256,414.185 419.46,419.46c0.617,0.012 183.232,1.93 303.06,-133.552c0.957,-1.082 -303.06,-285.908 -303.06,-285.908Z" style="fill:#f56960;stroke:#000;stroke-width:2.08px;"/><path d="M456.962,440.93l422.757,0l0,415.001l-845.514,0l422.757,-415.001Z" style="fill:#f56960;stroke:#000;stroke-width:2.08px;"/><path d="M879.719,440.93l-422.757,0l-422.757,-430.513l845.514,0l0,430.513" style="fill:#33cc45;stroke:#000;stroke-width:2.08px;"/><g><path d="M551.65,263.631l27.151,-32.503l18.75,12.41l40.212,-34.692" style="fill:none;stroke:#000;stroke-width:2.08px;"/><path d="M624.367,204.848l22.927,-5.283l-0.84,18.94" style="fill:none;stroke:#000;stroke-width:2.08px;"/><path d="M538.181,174.193l0,102.71l118.74,0.25" style="fill:none;stroke:#000;stroke-width:2.08px;"/></g><path d="M34.205,10.417l0,845.514l422.757,-415.001l-422.757,-430.513" style="fill:#f4d35e;stroke:#000;stroke-width:2.08px;"/><rect x="34.205" y="10.417" width="845.514" height="845.514" style="fill:none;stroke:#000;stroke-width:2.08px;"/><g><path d="M527.556,377.404l-141.875,0l0,127.051l142.562,0l-0.687,-127.051Z" style="fill:#fff;stroke:#000;stroke-width:2.08px;"/><rect x="374.969" y="346.381" width="163.987" height="31.023" style="fill:#fff;stroke:#000;stroke-width:2.08px;"/><g><path d="M456.962,346.381c-7.914,-1.801 -13.396,-3.202 -19.643,-9.142c-0.812,-0.772 -1.003,-0.778 -4.082,-4.662c-2.235,-2.819 -2.694,-9.191 -0.759,-11.944c1.554,-2.21 4.243,-3.403 7.41,-3.037c1.771,0.205 3.317,1.264 5.095,2.79c2.825,2.425 4.646,5.163 6.055,8.061c2.78,5.721 4.186,11.541 5.924,17.934Z" style="fill:none;stroke:#000;stroke-width:2.08px;"/><path d="M456.962,346.381c7.914,-1.801 13.396,-3.202 19.643,-9.142c0.812,-0.772 1.003,-0.778 4.082,-4.662c2.235,-2.819 2.694,-9.191 0.759,-11.944c-1.554,-2.21 -4.243,-3.403 -7.41,-3.037c-1.771,0.205 -3.317,1.264 -5.095,2.79c-2.825,2.425 -4.646,5.163 -6.055,8.061c-2.78,5.721 -4.186,11.541 -5.924,17.934Z" style="fill:none;stroke:#000;stroke-width:2.08px;"/></g><path d="M528.243,434.581l-64.785,0l0,-57.177l-12.837,0l0,57.177l-64.94,0l0,12.967l64.94,0l0,56.907l12.837,0l0,-56.907l64.785,0" style="fill:none;stroke:#000;stroke-width:2.08px;"/></g><text x="519.076px" y="136.453px" style="font-family:'AvenirNext-Regular', 'Avenir Next', sans-serif;font-size:25px;">Gain Cr<tspan x="605.476px 619.626px 632.726px " y="136.453px 136.453px 136.453px ">eat</tspan>ors</text><text x="1960.27px" y="420.32px" style="font-family:'AvenirNext-Regular', 'Avenir Next', sans-serif;font-size:25px;">Customer <tspan x="2078.42px 2090.72px " y="420.32px 420.32px ">Jo</tspan>bs</text><text x="1719.66px" y="222.055px" style="font-family:'AvenirNext-Regular', 'Avenir Next', sans-serif;font-size:25px;">Gains</text><text x="1722.9px" y="599.702px" style="font-family:'AvenirNext-Regular', 'Avenir Next', sans-serif;font-size:25px;">P<tspan x="1735.9px 1749.25px " y="599.702px 599.702px ">ai</tspan>ns</text><g transform="matrix(2.08333,0,0,2.08333,-587.067,-287.381)"><text x="347.287px" y="318.26px" style="font-family:'AvenirNext-Regular', 'Avenir Next', sans-serif;font-size:12px;">P<tspan x="353.671px 357.775px 365.107px " y="318.26px 318.26px 318.26px ">rod</tspan>ucts</text><text x="345.511px" y="330.26px" style="font-family:'AvenirNext-Regular', 'Avenir Next', sans-serif;font-size:12px;">&amp; Service</text></g><text x="519.651px" y="586.811px" style="font-family:'AvenirNext-Regular', 'Avenir Next', sans-serif;font-size:25px;">P<tspan x="532.651px 546.001px " y="586.811px 586.811px ">ai</tspan>n R<tspan x="587.701px 602.001px " y="586.811px 586.811px ">el</tspan>ievers</text><g><path d="M561.551,642.006l25.305,25.305c0.011,-0.021 21.427,-21.252 21.427,-21.427l-25.305,-25.305c-4.803,-4.487 -12.758,-5.857 -19.915,1.512c-7.441,7.66 -6.132,15.106 -1.512,19.915Z" style="stroke:#000;stroke-width:2.08px;"/><path d="M561.551,642.006l50.61,50.61c6.575,6.72 14.924,3.384 19.916,-1.511c5.615,-5.507 7.602,-14.005 1.511,-19.916l-50.61,-50.61c-4.803,-4.487 -12.758,-5.857 -19.915,1.512c-7.441,7.66 -6.132,15.106 -1.512,19.915Z" style="fill:none;stroke:#000;stroke-width:2.08px;"/></g><g><rect x="135.594" y="481.946" width="100.807" height="6.905" style="stroke:#000;stroke-width:2.08px;"/><path d="M184.83,429.64l-0.054,-1.953c0.764,-0.637 1.572,-0.674 2.424,-0.084l0.019,1.971c-0.796,-0.049 -1.592,-0.025 -2.389,0.066Z" style="stroke:#000;stroke-width:2.08px;"/><path d="M143.241,477.654c0,0 -4.691,-44.494 42.435,-44.783c47.127,-0.289 43.123,44.184 43.123,44.184l-85.558,0.599Z" style="stroke:#000;stroke-width:2.08px;"/></g><path d="M1796.34,21.47c231.507,0 419.46,187.953 419.46,419.46c0,231.506 -187.953,419.46 -419.46,419.46c-231.506,0 -419.46,-187.954 -419.46,-419.46c0,-220.009 169.748,-400.683 385.307,-418.087c11.265,-0.91 22.655,-1.373 34.153,-1.373Z" style="fill:none;stroke:#000;stroke-width:2.08px;"/><path d="M1796.34,391.856c27.085,0 49.074,21.989 49.074,49.074c0,27.084 -22.038,47.447 -49.074,49.074c-11.614,0.699 -49.22,-11.447 -37.327,-17.23c6.817,-3.314 10.78,-6.288 10.781,-6.882c0.001,-0.842 -6.532,2.122 -14.061,2.586c-4.027,0.249 -4.137,-6.965 -5.537,-10.818c-0.793,-2.185 -6.629,1.454 -7.069,-5.64c-0.204,-3.282 4.139,-7.674 4.139,-11.09c0,-25.74 19.86,-46.878 45.079,-48.914c1.318,-0.106 2.65,-0.16 3.995,-0.16Z" style="fill:#fff;stroke:#000;stroke-width:2.08px;"/><circle cx="1763.07" cy="430.091" r="1.303" style="fill:none;stroke:#000;stroke-width:2.08px;"/><g><circle cx="1740.2" cy="244.58" r="2.843" style="stroke:#000;stroke-width:2.08px;"/><circle cx="1763.82" cy="244.58" r="2.843" style="stroke:#000;stroke-width:2.08px;"/><path d="M1769.23,260.78c-3.415,5.976 -9.852,10.008 -17.224,10.008c-7.371,0 -13.809,-4.032 -17.224,-10.008" style="fill:none;stroke:#000;stroke-width:2.08px;"/></g><g><path d="M2035.35,453.432l33.489,0" style="fill:none;stroke:#000;stroke-width:2.08px;"/><path d="M2035.35,466.399l33.489,0" style="fill:none;stroke:#000;stroke-width:2.08px;"/><path d="M2035.35,479.318l33.489,0" style="fill:none;stroke:#000;stroke-width:2.08px;"/><circle cx="2028.08" cy="479.318" r="2.71" style="fill:none;stroke:#000;stroke-width:2.08px;"/><path d="M2024.45,466.652l3.47,3.638l3.774,-7.781" style="fill:none;stroke:#000;stroke-width:2.08px;"/><path d="M2024.45,453.528l3.47,3.637l3.774,-7.78" style="fill:none;stroke:#000;stroke-width:2.08px;"/></g><g><circle cx="1740.2" cy="624.453" r="2.843" style="stroke:#000;stroke-width:2.08px;"/><circle cx="1763.82" cy="624.453" r="2.843" style="stroke:#000;stroke-width:2.08px;"/><path d="M1734.79,650.661c3.415,-5.976 9.853,-10.008 17.224,-10.008c7.372,0 13.809,4.032 17.224,10.008" style="fill:none;stroke:#000;stroke-width:2.08px;"/></g><path d="M1060.49,458.922l18.15,-18.92l-198.92,0l198.92,0l-18.765,-19.291" style="fill:none;stroke:#000;stroke-width:2.08px;"/><path d="M1196.11,458.922l-18.15,-18.92l198.92,0l-198.92,0l18.765,-19.291" style="fill:none;stroke:#000;stroke-width:2.08px;"/></svg>